.
 
http://www.scenetime.com    -   SceneTime [ We been having it ] !!!


How come you press harder on a remote control when you know the battery is dead? so you better seed to get speed ;)

        Seed back for speed


...................................NFO:.................................................[img]http://img820.imageshack.us/img820/6947/resizedbrighton20rock20.jpg[/img]

[color=blue][size=5][b]Brighton.Rock.2010.BDRip.XVID.AC3.HQ.Hive-CM8[/b][/size][/color]


[b]Thx Hive


CM8 Doing It Right The First Time :D


Source Bluray

Video: 720x304 @bitrate 2000 2pass
Audio: English DTS to AC3 5.1 @448
Sample:yes included
Subs: yes english in srt /subs[/b]


[url]http://www.imdb.com/title/tt1233192/[/url]


General
Complete name                    : Brighton.Rock.2010.BDRip.XVID.AC3.HQ.Hive-CM8.avi
Format                           : AVI
Format/Info                      : Audio Video Interleave
File size                        : 1.90 GiB
Duration                         : 1h 51mn
Overall bit rate                 : 2 446 Kbps
Writing application              : Nandub v1.0rc2
Writing library                  : Nandub build 1853/release

Video
ID                               : 0
Format                           : MPEG-4 Visual
Format profile                   : Advanced Simple@L5
Format settings, BVOP            : 1
Format settings, QPel            : Yes
Format settings, GMC             : No warppoints
Format settings, Matrix          : Default (H.263)
Muxing mode                      : Packed bitstream
Codec ID                         : XVID
Codec ID/Hint                    : XviD
Duration                         : 1h 51mn
Bit rate                         : 1 990 Kbps
Width                            : 720 pixels
Height                           : 304 pixels
Display aspect ratio             : 2.35:1
Frame rate                       : 23.976 fps
Color space                      : YUV
Chroma subsampling               : 4:2:0
Bit depth                        : 8 bits
Scan type                        : Progressive
Compression mode                 : Lossy
Bits/(Pixel*Frame)               : 0.379
Stream size                      : 1.55 GiB (81%)
Writing library                  : XviD 1.2.1 (UTC 2008-12-04)

Audio
ID                               : 1
Format                           : AC-3
Format/Info                      : Audio Coding 3
Mode extension                   : CM (complete main)
Codec ID                         : 2000
Duration                         : 1h 51mn
Bit rate mode                    : Constant
Bit rate                         : 448 Kbps
Channel(s)                       : 6 channels
Channel positions                : Front: L C R, Side: L R, LFE
Sampling rate                    : 48.0 KHz
Bit depth                        : 16 bits
Compression mode                 : Lossy
Stream size                      : 356 MiB (18%)
Alignment                        : Split accross interleaves
Interleave, duration             : 42 ms (1.00 video frame)
Interleave, preload duration     : 500 ms


Helen Mirren as Ida
John Hurt as Phil Corkery
Andy Serkis as Mr. Colleoni
Sam Riley as Pinkie
Andrea Riseborough as Rose
Sean Harris as Hale
Philip Davis as Spicer
Steven Robertson as Crab
Maurice Roves as Inspector
Steve Evets as Mr Wilson


The year is 1964. The place is Brighton. A once quiet seaside town is suddenly overrun by gangs 
of sharp suited Mods and greasy Rockers looking for a riot. Amongst the chaos lurks top Mod and 
gangster Pinkie Brown. Ruthless, ambitious and horrifically violent, Pinkie will stop at nothing 
in his brutal quest to make a name for himself within the criminal underworld. But when a cold 
bloodied killing links him to a waitress named Rose, he uses seduction to secure her silence. 
Can Rose be saved in time from Pinkie, or will he drag her further into a world of death and damnation?


[img]http://img819.imageshack.us/img819/3701/60198066.png[/img]
[img]http://img607.imageshack.us/img607/2111/brbr.png[/img]
[img]http://img13.imageshack.us/img13/1440/brbbrbrbrrbrbrbr.png[/img]
[img]http://img861.imageshack.us/img861/9994/brbbrbrrbrbrbr.png[/img]
[img]http://img217.imageshack.us/img217/3821/brbbrrbrbrbr.png[/img]
[img]http://img191.imageshack.us/img191/3323/brbrbri.png[/img]
[img]http://img839.imageshack.us/img839/3753/brbrbrbr.png[/img]
[img]http://img577.imageshack.us/img577/8220/brbrbrbrbr.png[/img]
[img]http://img200.imageshack.us/img200/8952/brbbrbrbrrbrbrbbrr.png[/img]
[img]http://img171.imageshack.us/img171/3739/brbbrbbrrbrrbrbrbbrr.png[/img]


cover:

[img]http://img638.imageshack.us/img638/7026/brightonrock2010movieco.jpg[/img]




Greetz

ViSiON,SANTi,MAGNET,THC,T0XiC,iNK,LKRG,IMAGiNE,WBZ,FLAWL3SS,NOVA
D2U,Vik,Rapeseed,SAFC,goldadvance,MEMORY100,KaN1vE,Unevano,
Pinnz,Wayne,Mr Hive and all P2P groups 
Great Work Guys :D

FYS

CM8@hushmail.com